<?xml version="1.0" encoding="iso-8859-1"?>
<!-- Generator: Adobe Illustrator 19.0.0, SVG Export Plug-In . SVG Version: 6.00 Build 0)  -->
<svg version="1.1" id="Capa_1" xmlns="http://www.w3.org/2000/svg" xmlns:xlink="http://www.w3.org/1999/xlink" x="0px" y="0px"
	 viewBox="0 0 480.002 480.002" style="enable-background:new 0 0 480.002 480.002;" xml:space="preserve">
<g>
	<g>
		<g>
			<path d="M144.937,288.001h7.064c4.418,0,8-3.582,8-8v-32c0-13.255-10.745-24-24-24h-88v-168c0-4.418-3.582-8-8-8h-32
				c-4.418,0-8,3.582-8,8v224c0,4.418,3.582,8,8,8h7.064L0.049,423.121c-0.486,4.391,2.68,8.345,7.071,8.831
				c0.292,0.032,0.586,0.049,0.881,0.049h24c4.078,0,7.503-3.067,7.952-7.12l15.248-136.88h49.68l15.2,136.88
				c0.447,4.041,3.854,7.104,7.92,7.12h24c4.418,0,8-3.581,8.001-7.999c0-0.294-0.016-0.588-0.049-0.881L144.937,288.001z
				 M24.841,416.001h-7.904l14.264-128h7.904L24.841,416.001z M135.201,416.001l-14.264-128h7.904l14.224,128H135.201z
				 M144.001,272.001h-128v-208h16v168c0,4.418,3.582,8,8,8h96c4.418,0,8,3.582,8,8V272.001z"/>
			<path d="M479.953,423.121l-15.016-135.12h7.064c4.418,0,8-3.582,8-8v-224c0-4.418-3.582-8-8-8h-32c-4.418,0-8,3.582-8,8v168h-88
				c-13.255,0-24,10.745-24,24v32c0,4.418,3.582,8,8,8h7.064l-15.016,135.12c-0.486,4.391,2.68,8.345,7.071,8.831
				c0.292,0.032,0.586,0.049,0.881,0.049h24c4.078,0,7.503-3.067,7.952-7.12l15.248-136.88h49.68l15.2,136.88
				c0.447,4.041,3.854,7.104,7.92,7.12h24c4.418,0,8-3.581,8.001-7.999C480.002,423.707,479.986,423.413,479.953,423.121z
				 M344.801,416.001h-7.904l14.304-128h7.904L344.801,416.001z M455.201,416.001l-14.264-128h7.904l14.184,128H455.201z
				 M464.001,272.001h-128v-24c0-4.418,3.582-8,8-8h96c4.418,0,8-3.582,8-8v-168h16V272.001z"/>
			<path d="M360.001,184.001v-32c0-4.418-3.582-8-8-8h-224c-4.418,0-8,3.582-8,8v32c0,4.418,3.582,8,8,8h80v232c0,4.418,3.582,8,8,8
				h48c4.418,0,8-3.582,8-8v-232h80C356.42,192.001,360.001,188.419,360.001,184.001z M256.001,416.001h-32v-224h32V416.001z
				 M344.001,176.001h-208v-16h208V176.001z"/>
		</g>
	</g>
</g>
<g>
</g>
<g>
</g>
<g>
</g>
<g>
</g>
<g>
</g>
<g>
</g>
<g>
</g>
<g>
</g>
<g>
</g>
<g>
</g>
<g>
</g>
<g>
</g>
<g>
</g>
<g>
</g>
<g>
</g>
</svg>
